<?xml version="1.0" encoding="iso-8859-1"?>
<!-- Generator: Adobe Illustrator 19.0.0, SVG Export Plug-In . SVG Version: 6.00 Build 0)  -->
<svg version="1.1" id="Capa_1" xmlns="http://www.w3.org/2000/svg" xmlns:xlink="http://www.w3.org/1999/xlink" x="0px" y="0px"
	 viewBox="0 0 512.001 512.001" style="enable-background:new 0 0 512.001 512.001;" xml:space="preserve">
<g>
	<g>
		<g>
			<path d="M404.596,61.792C364.748,21.945,311.977,0,256,0c-55.975,0-108.746,21.945-148.594,61.792s-61.793,92.619-61.793,148.594
				v291.615c0,5.522,4.478,10,10,10h400.774c5.522,0,10-4.478,10-10V210.387C466.388,154.412,444.445,101.64,404.596,61.792z
				 M246.002,492.001H246H105.613V210.387c0-79.563,62.109-144.883,140.388-150.048V492.001z M406.39,492.001H266V60.339
				c78.281,5.165,140.389,70.484,140.389,150.048V492.001z M446.388,492.001H426.39V210.387c0-45.297-17.782-88.026-50.072-120.316
				C344.029,57.781,301.299,39.999,256,39.999c-45.296,0-88.024,17.783-120.315,50.072c-32.29,32.29-50.073,75.019-50.073,120.316
				v281.614H65.615V210.387C65.615,105.407,151.023,20,256,20c104.98,0,190.388,85.407,190.388,190.387V492.001z"/>
			<path d="M216.003,289.57c-5.508,0-10,4.492-10,9.999c0,5.508,4.492,10,10,10s10-4.492,10-10
				C226.003,294.063,221.51,289.57,216.003,289.57z"/>
			<path d="M125.615,263.943L125.615,263.943c-0.001,5.523,4.476,10,9.999,10h80.389c5.523,0,10-4.477,10-10V96.91
				c0-3.252-1.58-6.3-4.238-8.173c-2.657-1.874-6.059-2.338-9.121-1.246c-52.055,18.568-87.029,67.957-87.029,122.896V263.943z
				 M145.615,210.387c0-41.637,23.756-79.517,60.389-98.284v141.84h-60.389V210.387z"/>
			<path d="M216.003,414.417c-5.524,0-10,4.477-10,10v0.157c0,5.523,4.476,10,10,10c5.523,0,10-4.477,10-10v-0.157
				C226.003,418.894,221.526,414.417,216.003,414.417z"/>
			<path d="M216.003,325.196h-80.389c-5.523,0-10,4.477-10,10v126.805c0,5.523,4.477,10,10,10h80.389c5.523,0,10-4.477,10-10
				s-4.477-10-10-10h-70.389V345.196h60.389v51.526c0,5.523,4.476,10,10,10c5.523,0,10-4.477,10-10v-61.526
				C226.003,329.673,221.526,325.196,216.003,325.196z"/>
			<path d="M296.002,309.569c5.508,0,10-4.492,10-10c0-5.507-4.492-9.999-10-9.999c-5.507,0-9.999,4.493-9.999,9.999
				C286.003,305.077,290.495,309.569,296.002,309.569z"/>
			<path d="M299.362,87.49c-3.064-1.091-6.465-0.627-9.123,1.246c-2.656,1.873-4.237,4.921-4.237,8.173v167.033
				c-0.001,5.524,4.477,10.001,9.999,10.001h80.388c5.523,0,10-4.477,10-10v-53.557C386.39,155.447,351.416,106.058,299.362,87.49z
				 M366.39,253.944h-60.388V112.103c36.632,18.767,60.388,56.646,60.388,98.284V253.944z"/>
			<path d="M376.39,414.417c-5.523,0-10,4.477-10,10v0.157c0,5.523,4.477,10,10,10s10-4.477,10-10v-0.157
				C386.39,418.894,381.912,414.417,376.39,414.417z"/>
			<path d="M376.39,325.196h-80.388c-5.523,0-10,4.477-10,10v126.805c0,5.523,4.478,10,10,10h80.388c5.523,0,10-4.477,10-10
				s-4.477-10-10-10h-70.388V345.196h60.388v51.526c0,5.523,4.477,10,10,10s10-4.477,10-10v-61.526
				C386.39,329.673,381.913,325.196,376.39,325.196z"/>
		</g>
	</g>
</g>
<g>
</g>
<g>
</g>
<g>
</g>
<g>
</g>
<g>
</g>
<g>
</g>
<g>
</g>
<g>
</g>
<g>
</g>
<g>
</g>
<g>
</g>
<g>
</g>
<g>
</g>
<g>
</g>
<g>
</g>
</svg>
