<?xml version="1.0" encoding="iso-8859-1"?>
<!-- Generator: Adobe Illustrator 19.0.0, SVG Export Plug-In . SVG Version: 6.00 Build 0)  -->
<svg version="1.1" id="Capa_1" xmlns="http://www.w3.org/2000/svg" xmlns:xlink="http://www.w3.org/1999/xlink" x="0px" y="0px"
	 viewBox="0 0 511.973 511.973" style="enable-background:new 0 0 511.973 511.973;" xml:space="preserve">
<g>
	<g>
		<path d="M474.47,135.188L257.878,1.196c-2.624-1.624-5.952-1.592-8.544,0.08l-214.056,138c-2.304,1.488-3.688,4.056-3.664,6.8
			c0.024,2.744,1.456,5.28,3.792,6.728l78.408,48.504l-22.968,14.808l8.672,13.448l29.368-18.928l123.104,76.16
			c1.312,0.816,2.8,1.208,4.288,1.192c1.488-0.016,2.968-0.44,4.264-1.272l121.672-78.44l29.712,18.384l8.424-13.608l-23.24-14.376
			l77.488-49.96c2.304-1.488,3.688-4.056,3.664-6.8C478.238,139.172,476.806,136.636,474.47,135.188z M256.118,270.524
			L54.598,145.86l199.16-128.4l201.52,124.664L256.118,270.524z"/>
	</g>
</g>
<g>
	<g>
		<path d="M275.43,217.836l-19.688,12.696l-20.376-12.608l-8.424,13.608l24.672,15.264c1.312,0.816,2.8,1.208,4.288,1.192
			c1.488-0.016,2.968-0.44,4.264-1.272l23.936-15.432L275.43,217.836z"/>
	</g>
</g>
<g>
	<g>
		<path d="M258.254,41.188c-2.624-1.624-5.952-1.592-8.544,0.08l-25.192,16.24l8.672,13.448l20.944-13.496l21.16,13.096
			l8.424-13.608L258.254,41.188z"/>
	</g>
</g>
<g>
	<g>
		<path d="M55.638,257.86l22.976-14.808l-8.672-13.448l-33.616,21.664c-2.304,1.488-3.688,4.056-3.664,6.8
			c0.024,2.744,1.456,5.288,3.784,6.736l34.016,21.04l8.424-13.608L55.638,257.86z"/>
	</g>
</g>
<g>
	<g>
		<rect x="175.253" y="312.613" transform="matrix(0.5261 -0.8504 0.8504 0.5261 -207.5759 319.9037)" width="16" height="67.183"/>
	</g>
</g>
<g>
	<g>
		<path d="M286.534,363.588l-29.368,18.936l-29.728-18.392l-8.416,13.616l34.016,21.04c1.312,0.816,2.8,1.208,4.288,1.192
			c1.488-0.016,2.968-0.44,4.264-1.272l33.616-21.672L286.534,363.588z"/>
	</g>
</g>
<g>
	<g>
		<rect x="296.762" y="336.786" transform="matrix(0.8405 -0.5418 0.5418 0.8405 -134.1168 233.9785)" width="67.184" height="16"/>
	</g>
</g>
<g>
	<g>
		<path d="M475.518,247.172l-34.016-21.04l-8.424,13.608l23.248,14.376l-22.976,14.808l8.672,13.448l33.616-21.672
			c2.304-1.488,3.688-4.056,3.664-6.8C479.286,251.164,477.854,248.62,475.518,247.172z"/>
	</g>
</g>
<g>
	<g>
		<path d="M476.566,359.172l-78.408-48.504l32.584-21l-8.672-13.448l-56.472,36.4l8.672,13.448l9-5.8l74.112,45.848l-199.16,128.4
			L56.686,369.852l73.248-47.224l9.096,5.624l8.424-13.608L90.318,279.3l-8.424,13.608l32.968,20.392l-77.496,49.968
			c-2.304,1.488-3.688,4.056-3.664,6.8c0.024,2.744,1.456,5.28,3.792,6.728L254.086,510.78c1.312,0.816,2.8,1.208,4.288,1.192
			c1.488-0.016,2.968-0.44,4.264-1.272l214.056-138c2.304-1.488,3.688-4.056,3.664-6.8
			C480.334,363.156,478.894,360.62,476.566,359.172z"/>
	</g>
</g>
<g>
</g>
<g>
</g>
<g>
</g>
<g>
</g>
<g>
</g>
<g>
</g>
<g>
</g>
<g>
</g>
<g>
</g>
<g>
</g>
<g>
</g>
<g>
</g>
<g>
</g>
<g>
</g>
<g>
</g>
</svg>
