<?xml version="1.0" encoding="iso-8859-1"?>
<!-- Generator: Adobe Illustrator 19.0.0, SVG Export Plug-In . SVG Version: 6.00 Build 0)  -->
<svg version="1.1" id="Capa_1" xmlns="http://www.w3.org/2000/svg" xmlns:xlink="http://www.w3.org/1999/xlink" x="0px" y="0px"
	 viewBox="0 0 512.001 512.001" style="enable-background:new 0 0 512.001 512.001;" xml:space="preserve">
<g>
	<g>
		<path d="M467.001,211c-1.909,0-3.786,0.133-5.634,0.365l-52.935-104.218C416.206,99.056,421,88.081,421,76
			c0-24.813-20.187-45-45-45c-19.555,0-36.228,12.542-42.42,30H178.42c-6.192-17.458-22.865-30-42.42-30c-24.813,0-45,20.187-45,45
			c0,12.081,4.794,23.056,12.568,31.147L50.634,211.365C48.786,211.133,46.909,211,45,211c-24.813,0-45,20.187-45,45
			s20.187,45,45,45c1.909,0,3.786-0.133,5.634-0.365l52.935,104.218C95.794,412.944,91,423.919,91,436c0,24.813,20.187,45,45,45
			c19.555,0,36.228-12.542,42.42-30h155.16c6.192,17.458,22.865,30,42.42,30c24.813,0,45-20.187,45-45
			c0-12.081-4.794-23.056-12.568-31.147l52.935-104.218c1.847,0.232,3.724,0.365,5.634,0.365c24.813,0,45-20.187,45-45
			S491.814,211,467.001,211z M434.553,224.823l-73.718-25.118c0.1-1.223,0.165-2.456,0.165-3.705
			c0-13.548-6.027-25.708-15.531-33.965l30.193-41.044c0.113,0.001,0.224,0.009,0.337,0.009c1.909,0,3.786-0.133,5.634-0.365
			L434.553,224.823z M302.543,238.943C306.794,240.279,311.314,241,316,241c12.724,0,24.222-5.316,32.414-13.834l72.793,24.803
			L263.51,291.178c-0.022-0.034-0.043-0.069-0.066-0.103L302.543,238.943z M301,196c0-8.271,6.729-15,15-15s15,6.729,15,15
			s-6.729,15-15,15S301,204.271,301,196z M376,61c8.271,0,15,6.729,15,15s-6.729,15-15,15s-15-6.729-15-15S367.729,61,376,61z
			 M333.58,91c2.625,7.401,7.135,13.913,12.951,18.965l-30.193,41.044C316.225,151.008,316.113,151,316,151
			c-10.106,0-19.444,3.35-26.964,8.996L185.542,91H333.58z M272.378,184.946C271.481,188.484,271,192.188,271,196
			c0,9.213,2.787,17.784,7.556,24.925l-39.099,52.132C235.206,271.722,230.686,271,226,271c-0.284,0-0.564,0.016-0.846,0.021
			l-58.78-156.745L272.378,184.946z M241,316c0,8.271-6.729,15-15,15s-15-6.729-15-15s6.729-15,15-15S241,307.729,241,316z M136,61
			c8.271,0,15,6.729,15,15s-6.729,15-15,15s-15-6.729-15-15S127.729,61,136,61z M130.367,120.635
			c1.847,0.232,3.724,0.365,5.633,0.365c0.284,0,0.564-0.016,0.846-0.021l60.222,160.59c-2.419,2.037-4.618,4.324-6.563,6.82
			L89.979,255.15c-0.22-11.744-4.956-22.396-12.547-30.297L130.367,120.635z M45,271c-8.271,0-15-6.729-15-15s6.729-15,15-15
			s15,6.729,15,15S53.271,271,45,271z M136,451c-8.271,0-15-6.729-15-15s6.729-15,15-15s15,6.729,15,15S144.271,451,136,451z
			 M149.458,393.057C145.206,391.722,140.686,391,136,391c-1.909,0-3.786,0.133-5.634,0.365L77.432,287.147
			c1.081-1.125,2.103-2.305,3.063-3.536l100.527,33.239c0.166,8.889,2.913,17.155,7.535,24.075L149.458,393.057z M178.42,421
			c-1.252-3.53-2.929-6.86-4.976-9.925l39.099-52.132C216.794,360.279,221.314,361,226,361c8.71,0,16.845-2.495,23.742-6.797
			L333.239,421H178.42z M376,451c-8.271,0-15-6.729-15-15s6.729-15,15-15s15,6.729,15,15S384.271,451,376,451z M381.634,391.365
			C379.786,391.133,377.909,391,376,391c-8.71,0-16.845,2.495-23.742,6.797l-83.765-67.012c1.166-3.342,1.953-6.859,2.299-10.505
			l158.699-39.458c1.501,2.261,3.204,4.375,5.078,6.325L381.634,391.365z M467,271c-8.271,0-15-6.729-15-15s6.729-15,15-15
			s15,6.729,15,15S475.271,271,467,271z"/>
	</g>
</g>
<g>
</g>
<g>
</g>
<g>
</g>
<g>
</g>
<g>
</g>
<g>
</g>
<g>
</g>
<g>
</g>
<g>
</g>
<g>
</g>
<g>
</g>
<g>
</g>
<g>
</g>
<g>
</g>
<g>
</g>
</svg>
