<?xml version="1.0" encoding="iso-8859-1"?>
<!-- Generator: Adobe Illustrator 19.0.0, SVG Export Plug-In . SVG Version: 6.00 Build 0)  -->
<svg version="1.1" id="Capa_1" xmlns="http://www.w3.org/2000/svg" xmlns:xlink="http://www.w3.org/1999/xlink" x="0px" y="0px"
	 viewBox="0 0 512.001 512.001" style="enable-background:new 0 0 512.001 512.001;" xml:space="preserve">
<g>
	<g>
		<path d="M399.047,0.002H10c-5.523,0-10,4.478-10,10v389.045c0,5.522,4.477,10,10,10h389.047c5.522,0,10-4.478,10-10V10.001
			C409.047,4.481,404.569,0.002,399.047,0.002z M389.047,111.606c-0.75-0.18-1.529-0.285-2.335-0.285h-15c-5.523,0-10,4.477-10,10
			c0,5.521,4.477,10,10,10h15c0.806,0,1.585-0.105,2.335-0.285v258.01H130.909c0.265-0.898,0.413-1.846,0.413-2.83v-15
			c0-5.522-4.478-10-10-10c-5.523,0-10,4.478-10,10v15c0,0.984,0.148,1.932,0.413,2.83H20V20.001h369.047V111.606z"/>
	</g>
</g>
<g>
	<g>
		<path d="M276.712,111.322h-15c-5.523,0-10,4.477-10,10c0,5.521,4.476,10,10,10h15c5.522,0,10-4.479,10-10
			C286.712,115.799,282.234,111.322,276.712,111.322z"/>
	</g>
</g>
<g>
	<g>
		<path d="M221.713,111.322h-15c-5.523,0-10,4.477-10,10c0,5.521,4.476,10,10,10h15c5.522,0,10-4.479,10-10
			C231.713,115.799,227.235,111.322,221.713,111.322z"/>
	</g>
</g>
<g>
	<g>
		<path d="M386.218,461.609h-15c-5.523,0-10,4.477-10,10c0,5.522,4.477,10,10,10h15c5.522,0,10-4.478,10-10
			C396.218,466.085,391.74,461.609,386.218,461.609z"/>
	</g>
</g>
<g>
	<g>
		<path d="M221.219,461.609h-15c-5.523,0-10,4.477-10,10c0,5.522,4.477,10,10,10h15c5.522,0,10-4.478,10-10
			C231.219,466.085,226.741,461.609,221.219,461.609z"/>
	</g>
</g>
<g>
	<g>
		<path d="M166.219,461.609h-4.506v-20.392c0-5.522-4.478-10-10-10h-20.392v-5c0-5.522-4.478-10-10-10c-5.523,0-10,4.478-10,10v5
			h-20.39c-5.523,0-10,4.478-10,10V502c0,5.523,4.477,10,10,10h60.781c5.522,0,10-4.477,10-10v-20.391h4.506c5.522,0,10-4.478,10-10
			C176.219,466.085,171.741,461.609,166.219,461.609z M141.713,491.999h-40.781v-40.783h40.781V491.999z"/>
	</g>
</g>
<g>
	<g>
		<path d="M331.712,111.322h-15c-5.523,0-10,4.477-10,10c0,5.521,4.476,10,10,10h15c5.522,0,10-4.479,10-10
			C341.712,115.799,337.234,111.322,331.712,111.322z"/>
	</g>
</g>
<g>
	<g>
		<path d="M331.218,461.609h-15c-5.523,0-10,4.477-10,10c0,5.522,4.477,10,10,10h15c5.522,0,10-4.478,10-10
			C341.218,466.085,336.74,461.609,331.218,461.609z"/>
	</g>
</g>
<g>
	<g>
		<path d="M121.321,306.217c-5.523,0-10,4.478-10,10v15c0,5.523,4.477,10,10,10c5.522,0,10-4.477,10-10v-15
			C131.321,310.696,126.844,306.217,121.321,306.217z"/>
	</g>
</g>
<g>
	<g>
		<path d="M276.218,461.609h-15c-5.523,0-10,4.477-10,10c0,5.522,4.477,10,10,10h15c5.523,0,10-4.478,10-10
			C286.218,466.085,281.74,461.609,276.218,461.609z"/>
	</g>
</g>
<g>
	<g>
		<path d="M471.608,251.711c-5.523,0-10,4.479-10,10v15c0,5.523,4.477,10,10,10c5.522,0,10-4.477,10-10v-15
			C481.608,256.19,477.13,251.711,471.608,251.711z"/>
	</g>
</g>
<g>
	<g>
		<path d="M471.608,306.711c-5.523,0-10,4.479-10,10v15c0,5.523,4.477,10,10,10c5.522,0,10-4.477,10-10v-15
			C481.608,311.19,477.13,306.711,471.608,306.711z"/>
	</g>
</g>
<g>
	<g>
		<path d="M471.608,196.711c-5.523,0-10,4.479-10,10v15c0,5.524,4.477,10,10,10c5.522,0,10-4.477,10-10v-15
			C481.608,201.19,477.13,196.711,471.608,196.711z"/>
	</g>
</g>
<g>
	<g>
		<path d="M121.321,251.217c-5.523,0-10,4.479-10,10v15c0,5.523,4.477,10,10,10c5.522,0,10-4.477,10-10v-15
			C131.321,255.696,126.844,251.217,121.321,251.217z"/>
	</g>
</g>
<g>
	<g>
		<path d="M471.608,361.71c-5.523,0-10,4.479-10,10v15c0,5.523,4.477,10,10,10c5.522,0,10-4.477,10-10v-15
			C481.608,366.189,477.13,361.71,471.608,361.71z"/>
	</g>
</g>
<g>
	<g>
		<path d="M121.321,196.217c-5.523,0-10,4.479-10,10v15c0,5.523,4.477,10,10,10c5.522,0,10-4.477,10-10v-15
			C131.321,200.696,126.844,196.217,121.321,196.217z"/>
	</g>
</g>
<g>
	<g>
		<path d="M166.713,111.322h-5V90.929c0-5.521-4.478-10-10-10H90.932c-5.523,0-10,4.479-10,10v60.783c0,5.523,4.477,10,10,10h20.39
			v4.506c0,5.523,4.477,10,10,10c5.522,0,10-4.477,10-10v-4.506h20.392c5.522,0,10-4.477,10-10v-20.391h5c5.522,0,10-4.479,10-10
			C176.713,115.798,172.235,111.322,166.713,111.322z M141.713,141.712h-40.781v-40.783h40.781V141.712z"/>
	</g>
</g>
<g>
	<g>
		<path d="M502,431.216h-20.392v-4.506c0-5.521-4.478-10-10-10c-5.523,0-10,4.479-10,10v4.506h-20.391c-5.523,0-10,4.478-10,10
			v20.392h-5c-5.523,0-10,4.477-10,10c0,5.522,4.477,10,10,10h5v20.391c0,5.523,4.477,10,10,10H502c5.522,0,10-4.477,10-10v-60.783
			C512,435.695,507.522,431.216,502,431.216z M492,491.999h-40.783v-40.783H492V491.999z"/>
	</g>
</g>
<g>
	<g>
		<path d="M502,80.929h-60.783c-5.523,0-10,4.479-10,10v20.393h-4.506c-5.523,0-10,4.477-10,10c0,5.521,4.477,10,10,10h4.506v20.391
			c0,5.523,4.477,10,10,10h20.392v5c0,5.523,4.477,10,10,10c5.522,0,10-4.477,10-10v-5h20.392c5.522,0,10-4.477,10-10V90.929
			C512,85.408,507.522,80.929,502,80.929z M492,141.712h-40.783v-40.783H492V141.712z"/>
	</g>
</g>
<g>
	<g>
		<path d="M359.282,298.284l-14.673-14.679l3.802-3.802c3.904-3.904,3.904-10.236,0-14.143l-32.88-32.881
			c-1.876-1.875-4.419-2.93-7.071-2.93c-2.652,0-5.196,1.055-7.071,2.93l-1.377,1.377l3.285-22.838
			c0.721-5.012-2.418-9.771-7.309-11.084l-108.08-28.963c-0.058-0.016-0.117-0.02-0.176-0.035c-0.31-0.076-0.622-0.139-0.937-0.185
			c-0.105-0.017-0.21-0.033-0.315-0.046c-0.39-0.045-0.781-0.074-1.173-0.074c-0.02,0-0.039,0.003-0.059,0.003
			c-0.373,0.003-0.746,0.031-1.118,0.075c-0.103,0.013-0.205,0.029-0.308,0.045c-0.313,0.047-0.623,0.109-0.932,0.186
			c-0.078,0.02-0.157,0.036-0.235,0.058c-0.766,0.211-1.51,0.517-2.218,0.913c-0.079,0.045-0.156,0.093-0.234,0.139
			c-0.271,0.162-0.536,0.338-0.794,0.528c-0.081,0.06-0.164,0.117-0.244,0.179c-0.316,0.248-0.626,0.512-0.917,0.803
			c-0.291,0.291-0.553,0.6-0.801,0.916c-0.064,0.082-0.123,0.167-0.185,0.251c-0.187,0.254-0.36,0.515-0.52,0.781
			c-0.049,0.083-0.1,0.163-0.146,0.247c-0.394,0.705-0.698,1.444-0.909,2.207c-0.023,0.084-0.042,0.17-0.063,0.256
			c-0.074,0.3-0.135,0.602-0.181,0.906c-0.017,0.108-0.034,0.217-0.047,0.325c-0.043,0.362-0.07,0.726-0.073,1.09
			c0,0.028-0.004,0.056-0.004,0.083c0,0.391,0.029,0.779,0.074,1.167c0.013,0.107,0.03,0.215,0.046,0.322
			c0.047,0.311,0.108,0.621,0.184,0.929c0.015,0.06,0.02,0.12,0.036,0.18l28.962,108.081c1.185,4.422,5.189,7.412,9.65,7.412
			c0.474,0,0.952-0.035,1.433-0.103l22.838-3.285l-1.376,1.375c-3.905,3.904-3.905,10.236,0,14.141l32.879,32.883
			c1.875,1.877,4.419,2.93,7.071,2.93s5.196-1.053,7.071-2.928l3.803-3.803l14.677,14.674c1.953,1.953,4.512,2.93,7.071,2.93
			c2.559,0,5.118-0.977,7.07-2.93l42.475-42.473C363.187,308.521,363.187,302.189,359.282,298.284z M221.643,277.85l-17.005-63.461
			l16.045,16.045c1.952,1.953,4.512,2.93,7.07,2.93c2.56,0,5.119-0.977,7.071-2.93c3.905-3.904,3.905-10.236,0-14.143
			l-16.041-16.041l63.455,17.006l-5.826,40.5l-14.266,14.267L221.643,277.85z M277.119,322.811l-18.738-18.74l50.079-50.078
			l18.737,18.74L277.119,322.811z M309.74,333.684l-7.605-7.604l28.333-28.334l7.604,7.605L309.74,333.684z"/>
	</g>
</g>
<g>
</g>
<g>
</g>
<g>
</g>
<g>
</g>
<g>
</g>
<g>
</g>
<g>
</g>
<g>
</g>
<g>
</g>
<g>
</g>
<g>
</g>
<g>
</g>
<g>
</g>
<g>
</g>
<g>
</g>
</svg>
